<svg
   height="500"
   width="750"
>
  <path
     style="fill:#221309;fill-opacity:1"
     d="M 139.69355,114.52998 149.25157,126.60643 176.8675,114.64755 185.27257,109.55613 171.70046,91.832605 176.0233,88.739305 190.3581,106.64687 222.19172,66.063201 226.08081,70.659396 C 225.84727,72.300221 224.5919,69.01857 226.08081,70.659396 L 194.92588,109.71917 190.7823,112.72436 185.28359,115.71663 197.95616,136.31517 192.664,138.83948 179.28558,118.93258 152.65931,132.01088 162.99065,143.61203 192.60341,170.31133 220.67284,186.92142 254.89834,187.03936 289.20219,185.90868 323.83288,184.76722 328.00379,187.7786 220.33307,191.54194 186.85742,172.04471 155.13523,146.40066 132.9099,120.07107 Z"
     id="06_bridle"
     inkscape:connector-curvature="0"
     sodipodi:nodetypes="ccccccccccccccccccccccccccccc"
     inkscape:label="Bridle" />
</svg>