<svg
   height="500"
   width="750"
>
  <path
     style="fill:#375833;fill-opacity:1"
     d="M 269.12285,407.04162 268.84664,403.72706 276.68148,409.57214 284.00861,415.03845 284.28024,420.85922 289.26124,421.27409 289.30964,427.19829 284.33858,427.48839 284.20421,432.46525 288.89989,432.46925 288.83099,438.22074 284.59209,438.6928 283.70956,450.78861 267.93064,450.56344 269.19064,436.39432 269.34145,423.93662 V 415.94489 Z"
     id="08_forward_leg_wraps"
     inkscape:connector-curvature="0"
     sodipodi:nodetypes="cccccccccccccccccc"
     inkscape:label="Forward leg wraps" />
  <path
     style="fill:#375833;fill-opacity:1"
     d="M 526.56125,427.60401 526.7789,417.13146 535.28243,417.18166 544.5184,417.23618 542.84279,429.97263 540.43411,443.52572 C 536.04763,448.58134 532.19107,450.99287 527.51507,444.38342 524.56483,441.50965 526.80981,437.27514 526.03763,433.78624 L 523.53695,433.88949 524.25729,427.3514 Z"
     id="08_rear_leg_wraps"
     inkscape:connector-curvature="0"
     sodipodi:nodetypes="ccccccccccc"
     inkscape:label="Rear leg wraps" />
</svg>