<svg
   height="500"
   width="750"
>
  <path
     d="M 409.9526,209.86372 402.38765,230.4913 396.30921,248.56361 C 387.68146,267.20259 386.83161,265.70871 381.00148,271.27003 377.80381,274.05364 377.27201,273.87516 366.96533,277.8436 342.10077,279.29234 359.15283,278.1398 352.72881,278.43601 341.5634,277.83657 346.98566,279.60681 336.11646,275.74908 336.28591,276.96983 332.80989,273.19308 330.55435,269.50795 328.29881,265.82282 328.07179,265.90396 325.82938,259.47868 L 324.64454,245.55686 V 219.63861 L 329.08767,197.20082 C 331.59372,194.45904 336.40373,176.21788 336.60582,188.97548 331.17836,178.04994 344.18259,190.16402 347.97097,190.75829 L 366.96533,191.94312 377.94974,190.65321 387.14454,189.57345 405.13921,187.7962 433.01983,177.72512 C 438.91459,173.70961 451.60728,185.16988 440.89586,180.09478 447.58632,179.43485 446.94599,185.6868 441.48828,188.79699 L 423.28198,200.23696"
     id="07_saddle"
     inkscape:connector-curvature="0"
     sodipodi:nodetypes="cccccccscccccccccccccc"
     style="display:inline"
     inkscape:label="#Saddle"
     sodipodi:insensitive="true" />
</svg>