<svg
   height="500"
   width="750"
>
  <path
     style="fill:#375833;fill-opacity:1"
     d="M 269.26096,408.97512 268.98475,405.66056 276.81959,411.50564 284.14672,416.97195 284.41835,422.79272 289.39935,423.20759 289.44775,429.13179 284.47669,429.42189 284.34232,434.39875 289.038,434.40275 288.9691,440.15424 284.7302,440.6263 283.84767,452.72211 268.06875,452.49694 269.32875,438.32782 269.47956,425.87012 V 417.87839 Z"
     id="08_forward_leg_wraps"
     inkscape:connector-curvature="0"
     sodipodi:nodetypes="cccccccccccccccccc"
     inkscape:label="Forward leg wraps" />
  <path
     style="fill:#375833;fill-opacity:1"
     d="M 526.56125,427.60401 526.7789,417.13146 535.28243,417.18166 544.5184,417.23618 542.84279,429.97263 540.43411,443.52572 C 536.04763,448.58134 532.19107,450.99287 527.51507,444.38342 524.56483,441.50965 526.80981,437.27514 526.03763,433.78624 L 523.53695,433.88949 524.25729,427.3514 Z"
     id="08_rear_leg_wraps"
     inkscape:connector-curvature="0"
     sodipodi:nodetypes="ccccccccccc"
     inkscape:label="Rear leg wraps" />
</svg>